HIERARCHY
ROOT joint_Root
{
	OFFSET 0.0 0.0 0.0
	CHANNELS 6 Xposition Yposition Zposition Zrotation Xrotation Yrotation 
	JOINT Hips
	{
		OFFSET -17.1583 93.1646 452.98
		CHANNELS 6 Xposition Yposition Zposition Zrotation Xrotation Yrotation 
		JOINT Spine
		{
			OFFSET 15.7357 0.0 0.0
			CHANNELS 6 Xposition Yposition Zposition Zrotation Xrotation Yrotation 
			JOINT Chest
			{
				OFFSET 8.98455 -0.406207 0.0
				CHANNELS 6 Xposition Yposition Zposition Zrotation Xrotation Yrotation 
				JOINT Neck
				{
					OFFSET 16.3773 0.0 0.0
					CHANNELS 6 Xposition Yposition Zposition Zrotation Xrotation Yrotation 
					JOINT Head
					{
						OFFSET 6.45672 0.0 0.0
						CHANNELS 6 Xposition Yposition Zposition Zrotation Xrotation Yrotation 
						End Site
						{
							OFFSET 0.0 0.0 0.0
						}
					}
				}
				JOINT Shoulder_L
				{
					OFFSET 12.9942 -0.242716 4.98039
					CHANNELS 6 Xposition Yposition Zposition Zrotation Xrotation Yrotation 
					JOINT UpperArm_L
					{
						OFFSET 5.34809 0.0 0.0
						CHANNELS 6 Xposition Yposition Zposition Zrotation Xrotation Yrotation 
						JOINT LowerArm_L
						{
							OFFSET 24.3286 1.87007e-05 0.0
							CHANNELS 6 Xposition Yposition Zposition Zrotation Xrotation Yrotation 
							JOINT Hand_L
							{
								OFFSET 22.2916 0.0 0.0
								CHANNELS 6 Xposition Yposition Zposition Zrotation Xrotation Yrotation 
								End Site
								{
									OFFSET 0.0 0.0 0.0
								}
							}
						}
					}
				}
				JOINT Shoulder_R
				{
					OFFSET 12.9945 -0.242716 -4.98039
					CHANNELS 6 Xposition Yposition Zposition Zrotation Xrotation Yrotation 
					JOINT UpperArm_R
					{
						OFFSET -5.34813 0.0 0.0
						CHANNELS 6 Xposition Yposition Zposition Zrotation Xrotation Yrotation 
						JOINT LowerArm_R
						{
							OFFSET -24.3289 0.000322201 0.0
							CHANNELS 6 Xposition Yposition Zposition Zrotation Xrotation Yrotation 
							JOINT Hand_R
							{
								OFFSET -22.2915 -0.000108084 0.0
								CHANNELS 6 Xposition Yposition Zposition Zrotation Xrotation Yrotation 
								End Site
								{
									OFFSET 0.0 0.0 0.0
								}
							}
						}
					}
				}
			}
		}
		JOINT UpperLeg_L
		{
			OFFSET -2.19248 -6.46944 0.0
			CHANNELS 6 Xposition Yposition Zposition Zrotation Xrotation Yrotation 
			JOINT LowerLeg_L
			{
				OFFSET 39.0811 0.0 -1.23785e-05
				CHANNELS 6 Xposition Yposition Zposition Zrotation Xrotation Yrotation 
				JOINT Foot_L
				{
					OFFSET 40.9854 0.0 -1.26872e-05
					CHANNELS 6 Xposition Yposition Zposition Zrotation Xrotation Yrotation 
					JOINT Toes_L
					{
						OFFSET 11.7543 0.0 0.0
						CHANNELS 6 Xposition Yposition Zposition Zrotation Xrotation Yrotation 
						End Site
						{
							OFFSET 0.0 0.0 0.0
						}
					}
				}
			}
		}
		JOINT UpperLeg_R
		{
			OFFSET -2.19251 6.46944 0.0
			CHANNELS 6 Xposition Yposition Zposition Zrotation Xrotation Yrotation 
			JOINT LowerLeg_R
			{
				OFFSET -39.0811 -0.00228153 -0.0401928
				CHANNELS 6 Xposition Yposition Zposition Zrotation Xrotation Yrotation 
				JOINT Foot_R
				{
					OFFSET -40.9854 0.0 0.0
					CHANNELS 6 Xposition Yposition Zposition Zrotation Xrotation Yrotation 
					JOINT Toes_R
					{
						OFFSET -11.7543 0.0 0.0
						CHANNELS 6 Xposition Yposition Zposition Zrotation Xrotation Yrotation 
						End Site
						{
							OFFSET 0.0 0.0 0.0
						}
					}
				}
			}
		}
	}
}
MOTION
Frames:	6
Frame Time:	0.0333333
0.000000 0.000000 0.000000 0.000000 0.000000 -0.000000 -4.801720 91.423600 0.865658 83.640900 4.555420 6.441990 15.735700 0.000005 -0.000001 66.252300 85.948700 -62.179200 8.984550 -0.406207 -0.000000 -0.209589 -3.545300 8.137210 16.377300 -0.000001 -0.000001 12.454400 1.450570 5.955950 6.456720 -0.000001 -0.000000 0.197871 1.935980 12.916100 12.994200 -0.242716 4.980390 -91.859300 5.176880 -70.212800 5.348090 -0.000007 -0.000001 -77.621400 -9.019950 -5.108490 24.328600 0.000019 0.000005 39.229600 -39.290000 -127.798000 22.291600 -0.000001 0.000005 47.459000 4.863210 10.103700 12.994500 -0.242716 -4.980390 87.627400 6.409180 -69.636400 -5.348130 -0.000001 -0.000004 -68.462600 -8.581200 -3.727860 -24.328900 0.000322 -0.000009 17.827900 -19.640500 -136.264000 -22.291500 -0.000108 -0.000004 64.202400 5.644760 -14.536100 -2.192480 -6.469440 -0.000000 -169.957000 5.422820 -2.367270 39.081100 -0.000007 -0.000012 0.445242 -0.774643 29.890200 40.985400 -0.000006 -0.000013 0.989211 12.554100 -78.590400 11.754300 -0.000000 0.000003 0.000540 0.157974 -10.169900 -2.192510 6.469440 -0.000001 -169.180000 11.032900 -174.516000 -39.081100 -0.002282 -0.040193 0.143993 -0.483573 16.219200 -40.985400 0.000008 0.000006 6.315260 0.083241 -71.992000 -11.754300 -0.000006 -0.000006 -0.010096 0.272025 -5.521540
0.000000 0.000000 0.000000 0.000000 0.000000 -0.000000 -4.791480 91.423500 0.886512 83.684000 4.565270 6.459150 15.735700 0.000005 -0.000001 66.238300 85.937900 -62.181900 8.984550 -0.406207 -0.000000 -0.190849 -3.554020 8.104330 16.377300 -0.000001 -0.000001 12.490600 1.401540 6.004040 6.456720 -0.000001 -0.000000 0.153137 1.858320 12.977100 12.994200 -0.242716 4.980390 -91.862400 5.178250 -70.187300 5.348090 -0.000007 -0.000001 -77.620300 -9.245070 -5.089520 24.328600 0.000019 0.000005 39.147800 -39.158900 -127.801000 22.291600 -0.000001 0.000005 47.582900 4.851430 10.333100 12.994500 -0.242716 -4.980390 87.626600 6.408490 -69.628200 -5.348130 -0.000001 -0.000004 -68.468200 -8.809120 -3.660280 -24.328900 0.000322 -0.000009 17.852500 -19.600500 -136.166000 -22.291500 -0.000108 -0.000004 64.233900 5.644610 -14.522500 -2.192480 -6.469440 -0.000000 -170.007000 5.365410 -2.309290 39.081100 -0.000007 -0.000012 0.450345 -0.784473 29.860200 40.985400 -0.000006 -0.000013 1.014890 12.602200 -78.631300 11.754300 -0.000000 0.000003 0.000474 0.159221 -10.119300 -2.192510 6.469440 -0.000001 -169.240000 11.045500 -174.495000 -39.081100 -0.002282 -0.040193 0.144452 -0.484117 16.252000 -40.985400 0.000008 0.000006 6.309010 0.103889 -72.020400 -11.754300 -0.000006 -0.000006 -0.010117 0.272176 -5.515360
0.000000 0.000000 0.000000 0.000000 0.000000 -0.000000 -4.784810 91.429300 0.910543 83.695300 4.600040 6.487810 15.735700 0.000005 -0.000001 66.287100 85.931000 -62.242200 8.984550 -0.406207 -0.000000 -0.175952 -3.551890 8.081960 16.377300 -0.000001 -0.000001 12.465700 1.330460 6.078140 6.456720 -0.000001 -0.000000 0.182937 1.790750 13.049800 12.994200 -0.242716 4.980390 -91.856700 5.174770 -70.231300 5.348090 -0.000007 -0.000001 -77.612800 -9.558540 -5.012960 24.328600 0.000019 0.000005 38.893300 -38.906100 -127.902000 22.291600 -0.000001 0.000005 47.602100 4.846030 10.437700 12.994500 -0.242716 -4.980390 87.628300 6.391520 -69.592100 -5.348130 -0.000001 -0.000004 -68.509100 -9.131010 -3.608430 -24.328900 0.000322 -0.000009 17.899000 -19.577300 -136.053000 -22.291500 -0.000108 -0.000004 64.265600 5.641570 -14.258200 -2.192480 -6.469440 -0.000000 -170.005000 5.322040 -2.241260 39.081100 -0.000007 -0.000012 0.443881 -0.775047 29.801600 40.985400 -0.000006 -0.000013 1.035020 12.673900 -78.612200 11.754300 -0.000000 0.000003 0.000495 0.158827 -10.135300 -2.192510 6.469440 -0.000001 -169.258000 11.051500 -174.407000 -39.081100 -0.002282 -0.040193 0.143403 -0.482940 16.174800 -40.985400 0.000008 0.000006 6.299990 0.081670 -72.041600 -11.754300 -0.000006 -0.000006 -0.010107 0.272102 -5.518410
0.000000 0.000000 0.000000 0.000000 0.000000 -0.000000 -4.766440 91.428100 0.929721 83.720200 4.630280 6.480650 15.735700 0.000005 -0.000001 66.142400 85.927800 -62.112300 8.984550 -0.406207 -0.000000 -0.178121 -3.572380 8.052110 16.377300 -0.000001 -0.000001 12.478200 1.296200 6.089480 6.456720 -0.000001 -0.000000 0.138280 1.707200 13.106700 12.994200 -0.242716 4.980390 -91.861800 5.178770 -70.195200 5.348090 -0.000007 -0.000001 -77.636800 -9.876430 -4.966330 24.328600 0.000019 0.000005 39.073200 -38.853800 -127.692000 22.291600 -0.000001 0.000005 47.580300 4.837970 10.593100 12.994500 -0.242716 -4.980390 87.632100 6.369470 -69.557700 -5.348130 -0.000001 -0.000004 -68.518000 -9.398260 -3.588960 -24.328900 0.000322 -0.000009 17.861500 -19.503300 -136.013000 -22.291500 -0.000108 -0.000004 64.189600 5.640350 -14.155800 -2.192480 -6.469440 -0.000000 -170.044000 5.322680 -2.233850 39.081100 -0.000007 -0.000012 0.447213 -0.781149 29.792600 40.985400 -0.000006 -0.000013 1.058370 12.699000 -78.625900 11.754300 -0.000000 0.000003 0.000422 0.160185 -10.080100 -2.192510 6.469440 -0.000001 -169.280000 11.016400 -174.430000 -39.081100 -0.002282 -0.040193 0.145956 -0.490212 16.222700 -40.985400 0.000008 0.000006 6.289090 0.061222 -72.114600 -11.754300 -0.000006 -0.000006 -0.010351 0.273910 -5.444430
0.000000 0.000000 0.000000 0.000000 0.000000 -0.000000 -4.746040 91.427600 0.946845 83.754000 4.646330 6.450590 15.735700 0.000005 -0.000001 66.069000 85.933200 -62.058500 8.984550 -0.406207 -0.000000 -0.192856 -3.576680 8.012500 16.377300 -0.000001 -0.000001 12.482700 1.255240 6.145040 6.456720 -0.000001 -0.000000 0.088428 1.691760 13.081200 12.994200 -0.242716 4.980390 -91.865400 5.190680 -70.201800 5.348090 -0.000007 -0.000001 -77.607600 -10.172700 -4.921070 24.328600 0.000019 0.000005 38.933700 -38.631600 -127.696000 22.291600 -0.000001 0.000005 47.606400 4.852880 10.304800 12.994500 -0.242716 -4.980390 87.642200 6.335950 -69.539300 -5.348130 -0.000001 -0.000004 -68.487800 -9.619740 -3.599000 -24.328900 0.000322 -0.000009 17.963600 -19.537600 -135.887000 -22.291500 -0.000108 -0.000004 64.384600 5.637660 -13.933800 -2.192480 -6.469440 -0.000000 -170.089000 5.308020 -2.255480 39.081100 -0.000007 -0.000012 0.443751 -0.775502 29.779900 40.985400 -0.000006 -0.000013 1.066830 12.676000 -78.593200 11.754300 -0.000000 0.000003 0.000477 0.159158 -10.121800 -2.192510 6.469440 -0.000001 -169.334000 11.032600 -174.449000 -39.081100 -0.002282 -0.040193 0.145136 -0.486769 16.242400 -40.985400 0.000008 0.000006 6.263890 0.042802 -72.094800 -11.754300 -0.000006 -0.000006 -0.009953 0.270955 -5.565320
0.000000 0.000000 0.000000 0.000000 0.000000 -0.000000 -4.725760 91.429300 0.976107 83.786000 4.680410 6.460190 15.735700 0.000005 -0.000001 65.965800 85.929900 -61.976200 8.984550 -0.406207 -0.000000 -0.193032 -3.591310 7.970820 16.377300 -0.000001 -0.000001 12.458500 1.265960 6.125100 6.456720 -0.000001 -0.000000 0.090911 1.689130 13.112200 12.994200 -0.242716 4.980390 -91.856900 5.178250 -70.241500 5.348090 -0.000007 -0.000001 -77.639300 -10.445800 -4.857160 24.328600 0.000019 0.000005 38.808800 -38.504700 -127.743000 22.291600 -0.000001 0.000005 47.433800 4.843570 10.485100 12.994500 -0.242716 -4.980390 87.645700 6.330980 -69.552600 -5.348130 -0.000001 -0.000004 -68.419200 -9.868330 -3.554870 -24.328900 0.000322 -0.000009 17.898600 -19.419700 -135.832000 -22.291500 -0.000108 -0.000004 64.345500 5.637500 -13.920500 -2.192480 -6.469440 -0.000000 -170.136000 5.338220 -2.197990 39.081100 -0.000007 -0.000012 0.441092 -0.772385 29.730900 40.985400 -0.000006 -0.000013 1.095070 12.709900 -78.594800 11.754300 -0.000000 0.000003 0.000417 0.160274 -10.076500 -2.192510 6.469440 -0.000001 -169.361000 10.961000 -174.431000 -39.081100 -0.002282 -0.040193 0.147478 -0.494271 16.259000 -40.985400 0.000008 0.000006 6.234480 -0.041057 -72.164000 -11.754300 -0.000006 -0.000006 -0.010543 0.275319 -5.386770
